<svg xmlns="http://www.w3.org/2000/svg" width="32" height="32" viewBox="0 0 32 32" fill="none">
  <path d="M29.8836 6.146L16.7418 29.6457C16.4517 30.1728 15.7098 30.1698 15.4237 29.6405L2.14983 6.14517C1.83588 5.56839 2.31385 4.88672 2.97139 5.01777L16.0983 7.55361C16.2398 7.58304 16.3848 7.58179 16.5256 7.55C16.5256 7.55 29.7382 5.02378 29.8822 5.01847C30.5422 4.88997 31.0129 5.57047 29.8836 6.146Z" fill="#3B82F6"/>
  <path d="M20.3902 3.15561L11.8293 5.06614C11.7556 5.08468 11.7016 5.14958 11.6982 5.22622L11.2897 12.7527C11.2842 12.8683 11.3866 12.9633 11.5013 12.9438L13.8555 12.5853C13.9873 12.5622 14.1067 12.6673 14.0968 12.8003L13.5918 17.2689C13.5807 17.4205 13.7286 17.5333 13.8703 17.4724L15.3131 16.8788C15.4551 16.8177 15.6031 16.9309 15.5917 17.0825L14.8064 23.4564C14.7894 23.6733 15.0584 23.7893 15.1937 23.6098L15.3169 23.4356L21.7457 11.3554C21.8374 11.1901 21.7095 10.9923 21.5226 11.0276L19.0322 11.4465C18.8978 11.4712 18.7804 11.3628 18.7963 11.2271L19.7193 5.33764C19.7352 5.20175 19.6176 5.09319 19.483 5.11811L20.3902 3.15561Z" fill="white"/>
</svg>